<?xml version="1.0" encoding="utf-8"?>
<!-- Generator: Adobe Illustrator 27.0.0, SVG Export Plug-In . SVG Version: 6.00 Build 0)  -->
<svg version="1.1" id="Layer_1" xmlns="http://www.w3.org/2000/svg" xmlns:xlink="http://www.w3.org/1999/xlink" x="0px" y="0px"
	 viewBox="0 0 1080 1080" style="enable-background:new 0 0 1080 1080;" xml:space="preserve">
<g>
	<path d="M631.8,838.1c-21.2,3.2-40.2,11.6-57.4,24.6c4.1-6.9,8.2-13.7,12.9-21.6c-9.7,0.7-18.4,1.2-27.1,1.8
		c-0.2-0.5-0.5-1-0.7-1.5c6.4-3.4,12.7-6.7,19.5-10.3c-4.2-17.2-11.1-33.7-20.2-49.2c-0.6-1-2.4-1.9-3.6-1.8
		c-11.4,1-22.9,2-34.3,3.4c-5.9,0.7-7,3.1-4.5,8.6c6.1,13.2,12.1,26.3,18.4,39.3c1,2.1,3.5,3.7,5.6,4.8c4.2,2.2,8.7,3.8,13,6.3
		c-21.4,3.9-40.6,12.2-57.8,25.6c2-3.4,4.1-6.8,6.1-10.2c2.1-3.5,4.2-7.1,7-11.7c-9.7,0.6-18.5,1.1-28.7,1.8
		c8.5-7,17.2-10.3,27.8-12.9c-5-12-9.7-23.5-14.5-34.9c-1.1-2.6-2.9-4.9-3.9-7.5c-4.6-11.4-14.1-15.5-25.3-16.6
		c-33.8-3.5-62.4-19.1-89.6-37.9c-21.5-14.8-40.8-32.3-55.7-54c-15.6-22.6-24-48.2-28.7-75c-2.8-16-5.9-32.4-5.4-48.5
		c0.6-19.7,4.7-39.2,7.7-58.8c2.8-17.7,6.2-35.4,9.3-53.1c1-5.6-1.5-8.3-7.7-9.4c-5.1-0.9-10.2-1.6-15.1-3.1
		c-11.2-3.4-15.3-10.6-11.1-21.5c3.5-8.9,8.3-17.4,13.3-25.6c6.7-11,6.6-12.4-4.8-18.7c-8.2-4.6-16.4-9.2-25.4-14.3
		c13.1-3.3,25.1-6.5,37.2-9.4c7.6-1.8,12.7-6,15.6-13.3c8.5-21.5,22.8-38.2,42-50.8c8.3-5.4,14.7-12.2,19.5-20.9
		c9.3-16.7,21.6-30.8,37.5-41.5c3.8-2.6,8.2-4.6,12.5-6c7.2-2.4,12.5,0.4,14.9,7.6c1.4,4.1,2,8.4,3.1,13.3c4.7-2.2,9.3-4.2,13.9-6.4
		c10-4.8,20.1-8.9,31.4-9.2c12.2-0.3,18,8.2,13.5,19.6c-4.9,12.3-13.3,22.2-22.5,31.4c-1.6,1.6-3.9,2.5-5.9,3.8c0.5,0.7,1,1.3,1.4,2
		c7.1,2.1,14.3,4,21.4,6.2c4.7,1.5,9.5,3.2,14,5.2c5.2,2.4,9.1,5.9,9.5,12.3c0.4,6.8-3,11-8.5,14c-12.1,6.8-25.1,10.6-38.8,12.1
		c-8.6,1-17.2,1.5-25.9,2.1c-3.9,0.3-5.4,1.9-4.4,5.8c7.8,29.2,4.4,58.5,0.9,87.8c-1.9,16-3.2,32.1-4.5,48.2
		c-0.5,6.1,1.6,8.4,7.6,8.5c19.9,0.3,38.9,4.4,57.3,11.9c17.8,7.2,36.5,7.8,55.1,4.9c34.5-5.4,69.1-10.8,103.2-18.1
		c17.2-3.7,33.4-12,50.1-18c26.4-9.6,52.8-19.4,80.7-24c7.8-1.3,15.9-1.7,23.8-1.4c6.2,0.2,8.2,4.2,6.3,10.2
		c-0.6,1.9-1.4,3.7-2.3,5.5c-0.8,1.8-1.9,3.5-3,5.5c5.9,2.5,11.4,4.7,16.9,7.1c2.3,1,4.5,2.3,6.4,3.8c5.1,3.9,6.1,8.8,1.9,13.8
		c-3.3,3.9-7.1,7.6-11.4,10.2c-7.6,4.6-11.5,10.7-11.5,19.6c0,8.8-3.7,12.1-12.5,12.7c-6.3,0.4-12.6,0.9-18.8,2.2
		c-7.7,1.6-10.5,5-10.9,12.8c-1.2,23.9-4.9,47.3-12.9,69.9c-19.9,56.2-51.7,103.8-100.8,138.8c-18.2,13-38.1,22.4-59.9,27.8
		c-1.6,0.4-3.2,0.9-4.8,1.5c-3.1,1.2-4.1,3.4-2.7,6.4c6.9,14.9,13.9,29.9,21,44.7c0.6,1.3,2.8,2,4.3,2.6c6.6,2.4,13.3,4.7,20,7.1
		C632.1,836.9,631.9,837.5,631.8,838.1z M347.5,343.8c-0.5-2.5-0.7-4.8-1.5-6.9c-1.5-4.2-4.8-6.3-9.2-6.1c-4.3,0.2-7,3.1-7.2,7
		c-0.3,4.6-0.1,9.6,1.5,13.8c0.9,2.2,5.2,4.1,8,4.1c2.3,0,5.1-2.6,6.7-4.8C347.1,349,347,346.2,347.5,343.8z"/>
	<path d="M299.7,272.8c-2.8-1.9-4.9-2.9-6.5-4.5c-13.4-13-26.8-26-40.1-39c-4-3.9-4-8.6-0.5-12.3c3.6-3.8,9.5-4,13.4-0.3
		c7.9,7.4,15.6,15,23.4,22.5c5.5,5.4,10.8,10.8,16.3,16.2c3.1,3.1,3.8,7,1.6,10.5C305.5,268.6,302.4,270.4,299.7,272.8z"/>
	<path d="M340.9,239.4c0,8-2.9,11.4-8.3,12.1c-5,0.7-8.8-1.9-10-7.5c-1.7-7.8-3.1-15.6-4.3-23.5c-0.8-5.2,2.2-9,7.4-10.2
		c4.8-1.2,9.4,0.9,10.6,5.8C338.3,224.5,339.6,233,340.9,239.4z"/>
	<path d="M285,292.6c-0.1,7.2-5.6,11.4-12.4,9c-7.6-2.7-15.1-5.8-22.6-9c-4.2-1.7-6.1-4.9-5.2-9.5c1-4.7,3.7-7.3,8.6-7.3
		c2.1,0,4.4,0,6.3,0.7c6.8,2.6,13.5,5.5,20.1,8.5C284,286.9,285.1,288.8,285,292.6z"/>
</g>
</svg>
