<svg width="500" height="124" viewBox="0 0 500 124" fill="none" xmlns="http://www.w3.org/2000/svg">
<path d="M80 14H220V107H110C93.4315 107 80 93.5685 80 77V14Z" fill="#02AEF0"/>
<path d="M229 14H420V107H229V14Z" fill="#363435"/>
<path d="M118.244 34.8756L109.534 85H99.7229L108.433 34.8756H118.244ZM129.261 77.082L143.547 34.8756H148.746L149.297 41.9329L134.321 85H128.606L129.261 77.082ZM133.22 34.8756L132.841 78.0459L130.741 85H124.544L123.649 34.8756H133.22ZM149.4 76.9787L162.172 34.8756H171.983L155.528 85H149.262L149.4 76.9787ZM151.775 34.8756L152.946 78.1492L151.259 85H145.682L144.133 40.969L146.577 34.8756H151.775ZM187.544 34.8756L178.869 85H169.023L177.698 34.8756H187.544ZM199.111 56.1853L197.631 64.5165H179.867L181.347 56.1853H199.111ZM204.654 34.8756L203.173 43.2411H183.585L185.031 34.8756H204.654Z" fill="white"/>
<path d="M245.603 23.801L242.615 41H239.248L242.237 23.801H245.603ZM260.109 23.801L257.12 41H253.836L250.812 29.5537L248.828 41H245.45L248.426 23.801H251.722L254.77 35.2591L256.754 23.801H260.109ZM269.11 23.801L266.122 41H262.755L265.744 23.801H269.11ZM273.256 23.801L272.748 26.6714H261.184L261.68 23.801H273.256ZM282.305 38.1414L281.797 41H274.544L275.028 38.1414H282.305ZM278.572 23.801L275.595 41H272.217L275.194 23.801H278.572ZM282.624 30.7704L282.127 33.5463H275.831L276.316 30.7704H282.624ZM284.75 23.801L284.254 26.6714H277.013L277.521 23.801H284.75ZM286.734 23.801L291.92 23.8128C292.952 23.8443 293.818 24.0688 294.519 24.4861C295.227 24.8956 295.751 25.4784 296.09 26.2344C296.436 26.9825 296.566 27.8724 296.48 28.904C296.401 29.7624 296.216 30.5144 295.924 31.1602C295.633 31.8059 295.224 32.3651 294.696 32.8376C294.168 33.3101 293.523 33.7235 292.759 34.0779L291.601 34.6921H287.1L287.597 31.8217L290.455 31.8571C290.983 31.8414 291.432 31.7154 291.802 31.4791C292.172 31.2429 292.463 30.9239 292.676 30.5223C292.896 30.1207 293.038 29.6758 293.101 29.1875C293.148 28.8174 293.152 28.4433 293.113 28.0653C293.082 27.6873 292.963 27.3684 292.759 27.1085C292.554 26.8486 292.227 26.7069 291.778 26.6833L289.617 26.6714L287.136 41H283.758L286.734 23.801ZM291.4 41L289.652 33.3337L293.054 33.3219L295.003 40.811V41H291.4ZM309.639 31.9634L308.552 39.0509C308.079 39.5786 307.524 40.0038 306.886 40.3267C306.249 40.6496 305.575 40.8819 304.866 41.0236C304.158 41.1732 303.461 41.2441 302.776 41.2362C301.728 41.2205 300.85 41.0039 300.141 40.5866C299.441 40.1692 298.893 39.614 298.5 38.921C298.114 38.2201 297.862 37.4366 297.744 36.5703C297.633 35.6962 297.637 34.7945 297.755 33.8653L298.204 30.9476C298.346 29.9711 298.586 29.0379 298.925 28.148C299.263 27.2503 299.708 26.4549 300.26 25.7619C300.819 25.061 301.508 24.5137 302.327 24.1199C303.154 23.7183 304.11 23.5293 305.197 23.5529C306.394 23.5766 307.351 23.8325 308.068 24.3208C308.792 24.8011 309.316 25.4666 309.639 26.3171C309.969 27.1676 310.143 28.1519 310.158 29.2702H306.886C306.894 28.7819 306.859 28.3252 306.78 27.8999C306.701 27.4668 306.532 27.1164 306.272 26.8486C306.012 26.573 305.595 26.4234 305.02 26.3998C304.398 26.3761 303.878 26.5021 303.461 26.7778C303.043 27.0534 302.709 27.4156 302.457 27.8645C302.205 28.3134 302.008 28.8095 301.866 29.3529C301.724 29.8884 301.626 30.4081 301.571 30.9121L301.134 33.8771C301.079 34.3259 301.039 34.8063 301.016 35.3182C300.992 35.8301 301.031 36.3183 301.134 36.7829C301.244 37.2397 301.453 37.6177 301.76 37.9169C302.067 38.2083 302.524 38.3579 303.13 38.3658C303.406 38.3658 303.658 38.3422 303.886 38.2949C304.122 38.2398 304.351 38.165 304.571 38.0705C304.792 37.9681 305.008 37.8579 305.221 37.7398L305.847 34.574H303.449L303.898 31.9634H309.639ZM318.971 27.0376L313.005 41H309.343L317.529 23.801H319.845L318.971 27.0376ZM319.419 41L318.226 26.7541L318.415 23.801H320.613L322.869 41H319.419ZM320.624 34.5858L320.116 37.4563H312.556L313.064 34.5858H320.624ZM334.28 38.1414L333.772 41H326.826L327.322 38.1414H334.28ZM330.854 23.801L327.877 41H324.499L327.476 23.801H330.854ZM344.462 27.0376L338.497 41H334.835L343.021 23.801H345.336L344.462 27.0376ZM344.911 41L343.718 26.7541L343.907 23.801H346.104L348.36 41H344.911ZM346.116 34.5858L345.608 37.4563H338.048L338.556 34.5858H346.116ZM358.625 35.2828L361.874 35.2355C361.748 36.4325 361.413 37.4878 360.87 38.4013C360.334 39.3148 359.606 40.0235 358.684 40.5275C357.771 41.0315 356.692 41.2677 355.448 41.2362C354.416 41.2126 353.562 40.9882 352.884 40.5629C352.215 40.1298 351.699 39.5628 351.337 38.8619C350.982 38.1532 350.758 37.3696 350.664 36.5113C350.569 35.645 350.581 34.763 350.699 33.8653L351.136 30.9476C351.278 29.9947 351.518 29.0733 351.857 28.1834C352.195 27.2857 352.644 26.4864 353.203 25.7855C353.77 25.0768 354.459 24.5216 355.27 24.1199C356.089 23.7183 357.034 23.5293 358.105 23.5529C359.334 23.5766 360.31 23.864 361.035 24.4153C361.759 24.9586 362.279 25.6871 362.594 26.6006C362.909 27.5141 363.067 28.526 363.067 29.6364L359.7 29.6246C359.732 29.0891 359.724 28.5811 359.676 28.1008C359.637 27.6125 359.484 27.2148 359.216 26.9077C358.948 26.5927 358.491 26.4234 357.846 26.3998C357.216 26.3761 356.696 26.5021 356.286 26.7778C355.885 27.0534 355.562 27.4196 355.318 27.8763C355.081 28.3331 354.9 28.8292 354.774 29.3647C354.656 29.9002 354.562 30.4199 354.491 30.9239L354.077 33.8771C354.022 34.2866 353.971 34.7473 353.924 35.2591C353.884 35.7631 353.892 36.2514 353.947 36.7239C354.01 37.1885 354.172 37.5783 354.432 37.8933C354.699 38.2083 355.125 38.3776 355.707 38.4013C356.385 38.4328 356.916 38.3107 357.302 38.0351C357.696 37.7594 357.987 37.3814 358.176 36.9011C358.373 36.4128 358.523 35.8734 358.625 35.2828ZM372.399 23.801L369.41 41H366.043L369.032 23.801H372.399ZM376.545 23.801L376.037 26.6714H364.472L364.968 23.801H376.545ZM381.99 23.801L379.002 41H375.635L378.624 23.801H381.99ZM390.732 35.2828L393.98 35.2355C393.854 36.4325 393.519 37.4878 392.976 38.4013C392.44 39.3148 391.712 40.0235 390.791 40.5275C389.877 41.0315 388.798 41.2677 387.554 41.2362C386.522 41.2126 385.668 40.9882 384.991 40.5629C384.321 40.1298 383.806 39.5628 383.443 38.8619C383.089 38.1532 382.864 37.3696 382.77 36.5113C382.675 35.645 382.687 34.763 382.805 33.8653L383.242 30.9476C383.384 29.9947 383.624 29.0733 383.963 28.1834C384.302 27.2857 384.751 26.4864 385.31 25.7855C385.877 25.0768 386.566 24.5216 387.377 24.1199C388.196 23.7183 389.141 23.5293 390.212 23.5529C391.44 23.5766 392.417 23.864 393.141 24.4153C393.866 24.9586 394.386 25.6871 394.701 26.6006C395.016 27.5141 395.173 28.526 395.173 29.6364L391.807 29.6246C391.838 29.0891 391.83 28.5811 391.783 28.1008C391.744 27.6125 391.59 27.2148 391.322 26.9077C391.054 26.5927 390.598 26.4234 389.952 26.3998C389.322 26.3761 388.802 26.5021 388.393 26.7778C387.991 27.0534 387.668 27.4196 387.424 27.8763C387.188 28.3331 387.007 28.8292 386.881 29.3647C386.763 29.9002 386.668 30.4199 386.597 30.9239L386.184 33.8771C386.129 34.2866 386.077 34.7473 386.03 35.2591C385.991 35.7631 385.999 36.2514 386.054 36.7239C386.117 37.1885 386.278 37.5783 386.538 37.8933C386.806 38.2083 387.231 38.3776 387.814 38.4013C388.491 38.4328 389.023 38.3107 389.409 38.0351C389.802 37.7594 390.094 37.3814 390.283 36.9011C390.48 36.4128 390.629 35.8734 390.732 35.2828ZM243.052 66.2831L247.954 51.801H249.738L249.927 54.2226L244.788 69H242.827L243.052 66.2831ZM244.41 51.801L244.28 66.6139L243.56 69H241.433L241.126 51.801H244.41ZM249.962 66.2477L254.344 51.801H257.711L252.065 69H249.915L249.962 66.2477ZM250.777 51.801L251.179 66.6493L250.6 69H248.686L248.155 53.8918L248.993 51.801H250.777ZM259.684 51.801L264.869 51.8128C265.901 51.8443 266.767 52.0688 267.468 52.4861C268.177 52.8956 268.701 53.4784 269.039 54.2344C269.386 54.9825 269.516 55.8724 269.429 56.904C269.35 57.7624 269.165 58.5144 268.874 59.1602C268.582 59.8059 268.173 60.3651 267.645 60.8376C267.118 61.3101 266.472 61.7235 265.708 62.0779L264.55 62.6921H260.05L260.546 59.8217L263.405 59.8571C263.932 59.8414 264.381 59.7154 264.751 59.4791C265.121 59.2429 265.413 58.9239 265.625 58.5223C265.846 58.1207 265.988 57.6758 266.051 57.1875C266.098 56.8174 266.102 56.4433 266.062 56.0653C266.031 55.6873 265.913 55.3684 265.708 55.1085C265.503 54.8486 265.176 54.7069 264.728 54.6833L262.566 54.6714L260.085 69H256.707L259.684 51.801ZM264.35 69L262.601 61.3337L266.003 61.3219L267.952 68.811V69H264.35ZM279.777 66.1414L279.269 69H272.016L272.5 66.1414H279.777ZM276.044 51.801L273.067 69H269.689L272.666 51.801H276.044ZM280.096 58.7704L279.6 61.5463H273.303L273.788 58.7704H280.096ZM282.222 51.801L281.726 54.6714H274.485L274.993 51.801H282.222ZM289.097 64.3813C289.144 64.0269 289.132 63.7198 289.061 63.4599C288.99 63.2001 288.868 62.9717 288.695 62.7748C288.53 62.5701 288.325 62.3889 288.081 62.2314C287.845 62.0661 287.573 61.9125 287.266 61.7708C286.707 61.503 286.179 61.2038 285.683 60.873C285.195 60.5344 284.762 60.1564 284.384 59.739C284.013 59.3138 283.734 58.8334 283.545 58.2979C283.356 57.7624 283.285 57.156 283.332 56.4788C283.387 55.707 283.584 55.014 283.923 54.3998C284.262 53.7855 284.703 53.2658 285.246 52.8405C285.789 52.4074 286.4 52.0845 287.077 51.8719C287.762 51.6514 288.471 51.549 289.203 51.5648C290.243 51.5884 291.109 51.8364 291.802 52.3089C292.503 52.7814 293.022 53.4154 293.361 54.2108C293.708 55.0061 293.861 55.896 293.822 56.8804L290.455 56.8686C290.487 56.4827 290.467 56.1008 290.396 55.7228C290.333 55.3369 290.187 55.0219 289.959 54.7778C289.731 54.5258 289.372 54.3958 288.884 54.3879C288.475 54.3801 288.112 54.4706 287.797 54.6596C287.482 54.8486 287.226 55.1006 287.03 55.4156C286.833 55.7306 286.707 56.085 286.652 56.4788C286.612 56.7859 286.644 57.0615 286.746 57.3056C286.856 57.5498 287.006 57.7703 287.195 57.9671C287.392 58.1561 287.612 58.3294 287.856 58.4869C288.101 58.6365 288.345 58.7664 288.589 58.8767C289.187 59.1681 289.735 59.4831 290.231 59.8217C290.727 60.1524 291.148 60.5344 291.495 60.9675C291.849 61.3928 292.105 61.8849 292.263 62.4441C292.428 63.0032 292.487 63.6411 292.44 64.3577C292.377 65.1531 292.184 65.8539 291.861 66.4603C291.546 67.0667 291.129 67.5825 290.609 68.0078C290.089 68.4251 289.494 68.7401 288.825 68.9528C288.164 69.1654 287.447 69.2638 286.675 69.2481C285.856 69.2244 285.124 69.0709 284.478 68.7874C283.832 68.496 283.289 68.0944 282.848 67.5825C282.415 67.0706 282.092 66.4721 281.879 65.787C281.667 65.1019 281.58 64.3616 281.619 63.5663L284.998 63.5781C284.974 63.9482 284.978 64.3065 285.01 64.653C285.049 64.9995 285.136 65.3066 285.27 65.5744C285.411 65.8343 285.616 66.0429 285.884 66.2004C286.152 66.3501 286.506 66.4249 286.947 66.4249C287.364 66.4249 287.723 66.3383 288.022 66.165C288.321 65.9918 288.561 65.7516 288.742 65.4444C288.924 65.1373 289.042 64.7829 289.097 64.3813ZM303.532 51.801L300.543 69H297.177L300.165 51.801H303.532ZM307.678 51.801L307.17 54.6714H295.605L296.102 51.801H307.678ZM316.419 66.1414L315.911 69H308.965L309.462 66.1414H316.419ZM312.993 51.801L310.017 69H306.638L309.615 51.801H312.993ZM324.369 51.801L321.38 69H318.014L321.002 51.801H324.369ZM338.875 51.801L335.886 69H332.602L329.578 57.5537L327.594 69H324.215L327.192 51.801H330.488L333.535 63.2591L335.52 51.801H338.875ZM351.479 59.9634L350.392 67.0509C349.919 67.5786 349.364 68.0038 348.726 68.3267C348.088 68.6496 347.415 68.8819 346.706 69.0236C345.998 69.1732 345.301 69.2441 344.616 69.2362C343.568 69.2205 342.69 69.0039 341.981 68.5866C341.281 68.1692 340.733 67.614 340.339 66.921C339.954 66.2201 339.702 65.4366 339.583 64.5703C339.473 63.6962 339.477 62.7945 339.595 61.8653L340.044 58.9476C340.186 57.9711 340.426 57.0379 340.765 56.148C341.103 55.2503 341.548 54.4549 342.1 53.7619C342.659 53.061 343.348 52.5137 344.167 52.1199C344.994 51.7183 345.95 51.5293 347.037 51.5529C348.234 51.5766 349.191 51.8325 349.908 52.3208C350.632 52.8011 351.156 53.4666 351.479 54.3171C351.809 55.1676 351.983 56.1519 351.998 57.2702H348.726C348.734 56.7819 348.699 56.3252 348.62 55.8999C348.541 55.4668 348.372 55.1164 348.112 54.8486C347.852 54.573 347.435 54.4234 346.86 54.3998C346.238 54.3761 345.718 54.5021 345.301 54.7778C344.883 55.0534 344.549 55.4156 344.297 55.8645C344.045 56.3134 343.848 56.8095 343.706 57.3529C343.564 57.8884 343.466 58.4081 343.411 58.9121L342.974 61.8771C342.919 62.3259 342.879 62.8063 342.856 63.3182C342.832 63.8301 342.871 64.3183 342.974 64.7829C343.084 65.2397 343.293 65.6177 343.6 65.9169C343.907 66.2083 344.364 66.3579 344.97 66.3658C345.246 66.3658 345.498 66.3422 345.726 66.2949C345.962 66.2398 346.191 66.165 346.411 66.0705C346.632 65.9681 346.848 65.8579 347.061 65.7398L347.687 62.574H345.289L345.738 59.9634H351.479ZM245.473 79.801L242.496 97H239.118L242.095 79.801H245.473ZM249.442 87.1129L248.934 89.9716H242.839L243.347 87.1129H249.442ZM251.344 79.801L250.836 82.6714H244.115L244.611 79.801H251.344ZM260.381 94.1414L259.873 97H252.62L253.104 94.1414H260.381ZM256.648 79.801L253.671 97H250.293L253.269 79.801H256.648ZM260.7 86.7704L260.203 89.5463H253.907L254.392 86.7704H260.7ZM262.826 79.801L262.33 82.6714H255.089L255.597 79.801H262.826ZM266.358 97H263.227L263.747 94.1414L266.523 94.165C267.46 94.1729 268.204 93.9799 268.756 93.5862C269.307 93.1924 269.72 92.6648 269.996 92.0033C270.279 91.3339 270.48 90.5779 270.598 89.7353L270.988 87.0421C271.051 86.5459 271.095 86.0459 271.118 85.5419C271.142 85.0379 271.098 84.5733 270.988 84.148C270.878 83.7228 270.657 83.3802 270.327 83.1203C270.004 82.8526 269.523 82.7069 268.886 82.6833L265.649 82.6714L266.157 79.801L269.039 79.8128C270.071 79.8364 270.949 80.0491 271.673 80.4507C272.398 80.8523 272.977 81.3918 273.41 82.069C273.851 82.7463 274.146 83.5141 274.296 84.3724C274.445 85.2308 274.461 86.1325 274.343 87.0775L273.953 89.7471C273.788 90.763 273.508 91.7119 273.114 92.5939C272.721 93.4759 272.205 94.2477 271.567 94.9092C270.937 95.5707 270.189 96.0865 269.323 96.4566C268.456 96.8268 267.468 97.0079 266.358 97ZM268.177 79.801L265.2 97H261.822L264.798 79.801H268.177ZM285.163 94.1414L284.655 97H277.402L277.887 94.1414H285.163ZM281.43 79.801L278.454 97H275.075L278.052 79.801H281.43ZM285.482 86.7704L284.986 89.5463H278.69L279.174 86.7704H285.482ZM287.608 79.801L287.112 82.6714H279.871L280.379 79.801H287.608ZM289.593 79.801L294.779 79.8128C295.81 79.8443 296.676 80.0688 297.377 80.4861C298.086 80.8956 298.61 81.4784 298.948 82.2344C299.295 82.9825 299.425 83.8724 299.338 84.904C299.259 85.7624 299.074 86.5144 298.783 87.1602C298.492 87.8059 298.082 88.3651 297.555 88.8376C297.027 89.3101 296.381 89.7235 295.617 90.0779L294.46 90.6921H289.959L290.455 87.8217L293.314 87.8571C293.841 87.8414 294.29 87.7154 294.66 87.4791C295.031 87.2429 295.322 86.9239 295.535 86.5223C295.755 86.1207 295.897 85.6758 295.96 85.1875C296.007 84.8174 296.011 84.4433 295.972 84.0653C295.94 83.6873 295.822 83.3684 295.617 83.1085C295.413 82.8486 295.086 82.7069 294.637 82.6833L292.475 82.6714L289.995 97H286.616L289.593 79.801ZM294.259 97L292.511 89.3337L295.913 89.3219L297.862 96.811V97H294.259ZM308.079 83.0376L302.114 97H298.452L306.638 79.801H308.954L308.079 83.0376ZM308.528 97L307.335 82.7541L307.524 79.801H309.721L311.978 97H308.528ZM309.733 90.5858L309.225 93.4563H301.665L302.173 90.5858H309.733ZM321.841 79.801L318.852 97H315.486L318.474 79.801H321.841ZM325.987 79.801L325.479 82.6714H313.915L314.411 79.801H325.987ZM331.433 79.801L328.444 97H325.078L328.066 79.801H331.433ZM344.698 87.0657L344.285 89.9243C344.135 90.8851 343.883 91.8104 343.529 92.7003C343.174 93.5901 342.71 94.3816 342.135 95.0746C341.568 95.7597 340.875 96.2991 340.056 96.6929C339.237 97.0787 338.284 97.2599 337.197 97.2362C336.174 97.2126 335.315 96.9921 334.622 96.5748C333.937 96.1574 333.402 95.6022 333.016 94.9092C332.638 94.2162 332.39 93.4405 332.272 92.5821C332.153 91.7159 332.149 90.8339 332.26 89.9361L332.685 87.0775C332.835 86.101 333.083 85.1639 333.429 84.2661C333.776 83.3605 334.236 82.5494 334.811 81.8328C335.394 81.1161 336.099 80.5531 336.926 80.1436C337.753 79.7262 338.713 79.5333 339.808 79.5648C340.855 79.5884 341.721 79.8207 342.407 80.2617C343.092 80.7027 343.623 81.2854 344.001 82.0099C344.379 82.7266 344.619 83.5259 344.722 84.4079C344.824 85.282 344.816 86.1679 344.698 87.0657ZM340.918 89.9361L341.343 87.0184C341.391 86.6168 341.43 86.1601 341.462 85.6482C341.493 85.1363 341.466 84.6402 341.379 84.1598C341.292 83.6794 341.111 83.2778 340.836 82.9549C340.56 82.6321 340.131 82.4588 339.548 82.4352C338.926 82.4037 338.402 82.5297 337.977 82.8132C337.56 83.0967 337.221 83.4786 336.961 83.959C336.701 84.4315 336.5 84.9394 336.359 85.4828C336.225 86.0262 336.118 86.5459 336.04 87.0421L335.638 89.9479C335.583 90.3574 335.544 90.8103 335.52 91.3064C335.496 91.8025 335.532 92.2829 335.626 92.7475C335.729 93.2043 335.918 93.5862 336.193 93.8933C336.477 94.1926 336.906 94.354 337.481 94.3776C338.087 94.4091 338.595 94.2871 339.005 94.0114C339.414 93.7358 339.749 93.3775 340.009 92.9365C340.276 92.4876 340.477 91.9994 340.611 91.4718C340.753 90.9363 340.855 90.4244 340.918 89.9361ZM360.114 79.801L357.125 97H353.841L350.817 85.5537L348.833 97H345.454L348.431 79.801H351.727L354.774 91.2591L356.759 79.801H360.114Z" fill="white"/>
</svg>
