<svg width="411" height="63" viewBox="0 0 411 63" fill="none" xmlns="http://www.w3.org/2000/svg">
<path d="M43.5214 3.38617C43.4333 2.85793 43.6094 2.32968 43.9909 1.77209C44.3431 1.33189 44.7833 1.06777 45.3409 0.979728C45.9865 0.891688 46.5441 1.03842 46.9843 1.41993C47.4245 1.77209 47.6886 2.24164 47.7767 2.79923L47.8354 3.06335L47.8941 3.44486L47.9527 3.88507L48.0114 4.29592C48.0408 4.56004 48.0995 4.94155 48.1875 5.44045L48.2462 6.11543L48.3636 6.7904L48.5397 7.99362L48.7158 9.19685C48.8625 10.1946 48.9799 10.987 49.0679 11.6033C49.3321 12.6304 49.5081 14.3032 49.6255 16.6216C49.9483 20.4073 49.919 23.7235 49.5375 26.5995C48.569 34.1417 45.0181 39.6589 38.8846 43.1218C34.688 45.5282 30.1099 46.7315 25.0916 46.7315C20.1906 46.7315 15.3777 45.5576 10.6529 43.2098C8.86275 42.3001 7.30737 41.0675 5.98676 39.5708C4.72484 38.0448 3.72705 36.284 3.05207 34.2884C2.34775 32.1461 2.08363 29.9157 2.25971 27.656C2.40644 25.3376 2.99338 23.254 4.02052 21.3464C5.34113 18.6759 6.77912 16.6216 8.36385 15.1543C9.74315 13.8336 11.8268 12.4543 14.5854 11.0164L15.0549 10.7522L15.5245 10.5175L15.8473 10.4001L16.1701 10.224C16.9625 9.90117 17.6375 9.72509 18.195 9.63705C19.9265 9.28489 21.3058 9.46097 22.3916 10.1653C23.7123 11.0457 24.3872 12.2196 24.4459 13.7163C24.4753 14.7727 24.4166 15.389 24.2698 15.5651L24.2405 15.6825L24.2111 15.8292C24.1818 15.8879 24.1525 16.0053 24.1231 16.2107L24.0351 16.5336L23.947 16.8857L23.7709 17.414L23.6829 17.7074L23.6242 17.9129C23.5655 18.2357 23.5362 18.4411 23.5655 18.5291C23.6242 18.9693 23.8296 19.2628 24.1818 19.4095C24.6514 19.5563 25.6198 19.6737 27.1165 19.703L27.5567 19.7324H28.0849L28.3197 19.7617H28.5838L29.0827 19.7911C29.9631 19.8791 30.6675 20.0258 31.225 20.2313C32.8978 20.8182 33.9543 21.9627 34.3945 23.6355C34.7467 25.0735 34.4532 26.5115 33.5141 27.9495C33.0152 28.6245 32.575 29.1527 32.1641 29.5636L32.1055 29.6223L32.0468 29.6809L31.812 29.8864L31.4305 30.2385L31.0783 30.62L30.6968 30.9135L30.4914 31.0896L30.3446 31.207L30.2859 31.295L30.2566 31.3244L30.2273 31.3537L29.9925 31.5591L29.7577 31.7939L29.611 31.9407L29.4642 32.1167L29.3762 32.2341L29.3175 32.3222C28.936 32.7624 28.4664 33.0558 27.9089 33.1439C27.3513 33.2906 26.823 33.1732 26.3241 32.7917C25.8546 32.4395 25.5611 31.97 25.4731 31.3537C25.385 30.7374 25.5318 30.2092 25.8839 29.769C26.3241 29.182 26.9991 28.5071 27.8502 27.7441L28.3491 27.3039L28.7599 26.9223L28.848 26.7756L28.9653 26.7169L28.9947 26.6582L29.2882 26.3648L29.3468 26.2767L29.4642 26.1593L29.6697 25.9539C30.1099 25.3963 30.3153 24.9854 30.2566 24.7507C30.1686 24.4866 29.9631 24.3105 29.6403 24.2224C29.2882 24.105 28.4077 24.017 26.9991 23.9877H26.5002L25.9426 23.9583L25.385 23.8996L24.8861 23.8703C23.859 23.7822 23.096 23.6061 22.5384 23.342C20.6895 22.6084 19.633 21.2291 19.3396 19.2041C19.2515 18.94 19.2809 18.3237 19.3983 17.3259L19.4276 17.1792L19.457 16.9738L19.5157 16.7096L19.6037 16.4162L19.7211 16.0347L19.8091 15.6532L19.9852 14.9488L20.0439 14.6847L20.1026 14.4499L20.22 14.0391C20.1906 13.8923 20.1319 13.8043 20.0146 13.7163C19.9265 13.6576 19.6037 13.6869 19.0461 13.8043C18.2831 13.9804 17.4614 14.3032 16.5516 14.7727C14.1745 16.0347 12.4431 17.1792 11.3279 18.2357C10.1247 19.3802 8.95079 21.0823 7.80626 23.2833C7.10194 24.6626 6.66173 26.218 6.515 28.0082C6.36827 29.182 6.57369 30.8255 7.13128 32.9384C8.09973 35.9318 9.88989 38.0741 12.5605 39.3948C16.6984 41.4197 20.8656 42.4468 25.0916 42.4468C29.3468 42.4468 33.25 41.4197 36.8009 39.3948C41.7606 36.5481 44.6072 31.97 45.3409 25.6604C45.6637 23.1366 45.6637 20.1432 45.3409 16.6803C45.2235 15.301 45.0474 13.775 44.8126 12.0728L44.7539 11.5446L44.6659 10.987C44.6072 10.5175 44.5485 10.1066 44.4898 9.75444L44.1377 7.43603L43.9909 6.4089L43.8148 5.4111L43.7855 5.11763V5.02959L43.7562 4.94155L43.6975 4.61874L43.6681 4.32527L43.5801 3.85572L43.5214 3.38617ZM59.6034 32.3809C60.161 34.9047 61.0708 36.9003 62.3327 38.397C63.9468 40.3045 65.913 41.273 68.2021 41.273C68.789 41.273 69.2879 41.4784 69.6988 41.8892C70.139 42.3294 70.3444 42.8283 70.3444 43.3859C70.3444 43.9729 70.139 44.4718 69.6988 44.912C69.2879 45.3228 68.789 45.5282 68.2021 45.5282C64.5924 45.5282 61.5403 44.0609 59.0459 41.1262C57.3144 39.0426 56.1112 36.4307 55.4362 33.2906C54.9373 31.0602 54.5558 26.13 54.2917 18.4704C54.2036 16.6509 54.1156 13.863 54.0862 10.0773C54.0275 7.70016 53.9982 5.91 53.9982 4.73612C53.9982 4.11984 54.2036 3.62094 54.6438 3.21009C55.0253 2.82858 55.5242 2.62315 56.1405 2.62315C56.7275 2.62315 57.2264 2.82858 57.6666 3.23944C58.0774 3.67964 58.2828 4.17853 58.2828 4.76547V5.32306C58.2828 5.70457 58.2828 6.14477 58.3122 6.61432V8.31644L58.3415 9.43162V10.5468C58.3709 14.1858 58.4296 16.9151 58.5763 18.7639C58.8404 26.0126 59.1926 30.5614 59.6034 32.3809ZM85.9863 43.3859C85.9863 43.9729 85.7808 44.4718 85.37 44.8826C84.9298 45.3228 84.4309 45.5282 83.8733 45.5282C82.1418 45.5282 80.4691 45.0587 78.855 44.1489C77.2409 43.0925 76.2138 42.0947 75.7736 41.1556C75.9203 40.9501 75.5681 41.3316 74.7171 42.3294C72.6921 44.4424 70.4618 45.4989 68.026 45.5282C67.4391 45.5282 66.9402 45.3228 66.5 44.8826C66.0891 44.4718 65.8837 43.9729 65.8837 43.3859C65.8837 42.799 66.0891 42.3001 66.5 41.8599C66.9402 41.449 67.4684 41.2436 68.026 41.2436C69.2292 41.2436 70.4324 40.6273 71.577 39.4241C72.9563 37.8687 73.5139 34.9047 73.191 30.5614C73.1617 30.0625 73.3378 29.5929 73.6606 29.094C74.0421 28.5951 74.5116 28.331 75.0692 28.3016C75.5681 28.2136 76.067 28.3603 76.5953 28.6832C77.0355 29.006 77.2996 29.4168 77.4463 29.9744L77.5931 30.8255L77.7398 31.7059L77.8865 32.5569L78.0039 33.3786C78.268 35.0514 78.4735 36.2546 78.6789 36.9883C78.9724 38.0155 79.3832 38.8078 79.8821 39.3654C80.4397 39.9817 81.0853 40.4512 81.819 40.7447C82.4353 41.0675 83.1396 41.2436 83.8733 41.2436C84.4309 41.2436 84.9298 41.449 85.37 41.8599C85.7808 42.3001 85.9863 42.799 85.9863 43.3859ZM73.6606 53.628L73.103 53.1291C72.6334 52.7476 72.3987 52.278 72.3693 51.7204V51.5443C72.3693 50.9281 72.5454 50.4585 72.9269 50.077C73.3084 49.6661 73.778 49.4607 74.3943 49.4314C74.9518 49.4314 75.5094 49.6368 76.067 50.077L77.5344 51.3096L78.0626 51.7204C78.5322 52.1313 78.7963 52.6008 78.8843 53.1291L78.9137 53.4812C78.9137 53.9801 78.7082 54.4497 78.3267 54.8899C77.9159 55.3301 77.3876 55.5355 76.7714 55.5355C76.3898 55.5355 75.9496 55.3888 75.5094 55.1247L73.6606 53.628ZM122.23 41.6545C121.437 43.2098 119.882 44.325 117.563 45C114.864 45.8511 112.428 45.4989 110.285 44.0022C109.346 43.2685 108.73 42.6523 108.407 42.124C107.586 43.0631 106.236 43.9142 104.387 44.6478C102.685 45.3815 100.865 45.7337 98.9282 45.7337H98.5467L98.3119 45.7043L98.0478 45.675L97.7544 45.6456L97.3141 45.6163L96.8739 45.5869C94.2034 45.1174 92.3839 44.1489 91.4448 42.6816C90.8285 43.562 89.6253 44.2957 87.8351 44.8533C85.9276 45.2935 84.4602 45.5282 83.4331 45.5282C82.8462 45.5282 82.3473 45.3228 81.9071 44.8826C81.4962 44.4718 81.2908 43.9729 81.2908 43.3859C81.2908 42.799 81.4962 42.3001 81.9071 41.8599C82.3473 41.449 82.8755 41.2436 83.4331 41.2436C85.3406 41.2436 86.7493 40.9208 87.7177 40.2458C88.2753 39.8643 88.6568 39.3361 88.921 38.6611C89.2438 37.9861 89.4785 36.9883 89.684 35.7264C89.772 35.1688 90.0361 34.7286 90.4763 34.3764C90.9165 33.9949 91.4448 33.8482 92.0611 33.9362C92.6187 34.0243 93.0882 34.2884 93.4404 34.7286C93.7925 35.1688 93.9393 35.6677 93.9099 36.2546C93.7338 37.7807 94.0566 39.0426 94.9077 40.0697C95.524 40.7447 96.4044 41.1556 97.5783 41.3316C99.2217 41.6838 101.129 41.3903 103.33 40.4219C105.296 39.4241 106.5 38.1035 106.94 36.4894C107.057 35.9905 107.351 35.5503 107.791 35.2275C108.231 34.9634 108.73 34.846 109.229 34.8753C109.787 34.9047 110.256 35.1395 110.579 35.5503C110.931 35.9025 111.107 36.372 111.137 36.9296C111.195 38.6024 111.753 39.8056 112.809 40.5393C113.66 41.2143 114.834 41.361 116.331 40.9208C117.475 40.5686 118.356 39.8643 118.913 38.8372C119.383 37.9274 119.794 36.4894 120.175 34.4645L120.41 33.2319C120.557 32.6156 120.88 32.1754 121.32 31.9113C121.672 31.5591 122.23 31.4418 122.963 31.5591C123.58 31.7059 124.02 32.0287 124.284 32.4689C124.665 32.7917 124.753 33.32 124.607 34.1123C124.401 34.8753 124.401 35.7851 124.607 36.8416C124.753 37.5752 125.106 38.3383 125.634 39.1013C126.808 40.5393 128.334 41.2436 130.183 41.2436C130.77 41.2436 131.268 41.449 131.709 41.8599C132.12 42.3001 132.325 42.799 132.325 43.3859C132.325 43.9729 132.12 44.4718 131.709 44.8826C131.268 45.3228 130.77 45.5282 130.183 45.5282C128.745 45.5282 127.189 45.1174 125.487 44.325C124.167 43.65 123.139 42.8283 122.347 41.8305L122.23 41.6545ZM139.221 35.521C139.221 36.5188 139.192 37.047 139.192 37.047C139.133 38.4263 138.987 39.4534 138.723 40.1871C138.282 42.1534 137.167 43.6207 135.436 44.5305C134.555 45.0293 133.528 45.3228 132.325 45.4695H131.914L131.474 45.4989H130.799C130.593 45.5282 130.417 45.5282 130.271 45.5282H129.42C128.774 45.5282 128.275 45.3228 127.894 44.8826C127.483 44.5011 127.277 44.0022 127.277 43.3859C127.277 42.799 127.483 42.3001 127.894 41.8599C128.304 41.449 128.803 41.2436 129.42 41.2436H129.713C131.151 41.2436 132.002 41.2143 132.325 41.1556C132.736 41.0969 133.088 40.9795 133.381 40.7741C134.056 40.3925 134.526 39.5415 134.761 38.2502L134.907 36.5775L134.966 35.2862L134.937 33.6134C134.937 32.1461 134.731 27.9201 134.35 20.9062C133.91 14.0684 133.44 8.55121 133 4.32527C132.912 3.85572 133.059 3.32748 133.411 2.76989C133.792 2.27099 134.291 2.00687 134.878 1.97752C135.436 1.88948 135.964 2.03621 136.433 2.41772C136.874 2.79923 137.138 3.26878 137.226 3.82637C137.695 7.7882 138.165 13.3934 138.605 20.7008C139.016 27.2452 139.221 31.5298 139.221 33.6134V35.521ZM146.588 45.8217C146.001 45.8217 145.502 45.6163 145.091 45.2054C144.651 44.8239 144.445 44.325 144.445 43.7087C144.386 36.2546 144.034 28.1843 143.389 19.5269L143.301 17.7661L143.183 16.0053L143.125 15.0369L143.066 14.0978L143.037 13.6282L143.007 13.1293L142.978 12.7478L142.949 12.3957L142.831 10.3414L142.743 8.60991C142.743 8.60991 142.714 8.34579 142.714 7.87624V7.61212L142.684 7.31865L142.655 6.81975L142.626 6.32085C142.596 5.58718 142.567 5.05894 142.538 4.70678C142.508 4.09049 142.684 3.56225 143.095 3.12205C143.477 2.68185 143.976 2.44707 144.592 2.41772C145.208 2.38838 145.707 2.5938 146.147 2.97531C146.588 3.35682 146.793 3.85572 146.822 4.472C146.881 5.55784 146.94 6.70236 146.998 7.93493V8.2284L147.028 8.58056L147.057 9.05011L147.086 9.37293C147.086 9.37293 147.116 9.63705 147.116 10.1359V10.4588L147.145 10.7816L147.439 15.7412L147.556 17.5314L147.644 19.2628C148.319 27.568 148.671 35.697 148.73 43.6794C148.73 44.2663 148.524 44.7652 148.114 45.1761C147.732 45.6163 147.233 45.8217 146.617 45.8217H146.588ZM163.08 31.3831C162.024 31.3831 161.026 31.8526 160.087 32.8211C159.177 33.7308 158.59 34.7873 158.326 36.0199C158.238 36.5775 158.238 37.135 158.385 37.6926C158.561 38.2209 158.972 38.6317 159.588 38.8959C162.846 40.2458 166.338 40.2752 170.065 39.0132L170.036 38.8665C169.86 38.0741 169.419 37.0177 168.686 35.7557C167.923 34.2297 167.072 33.1145 166.103 32.3809C165.252 31.7059 164.254 31.3831 163.11 31.3831H163.08ZM171.444 43.0631C169.155 43.8261 166.866 44.2076 164.577 44.1783C162.171 44.1489 159.97 43.7087 157.945 42.8577C156.448 42.212 155.333 41.1849 154.658 39.8056C153.983 38.1328 153.807 36.5775 154.159 35.1395C154.57 33.0265 155.568 31.207 157.152 29.6516C158.943 27.9495 160.938 27.0984 163.08 27.0984H163.11C165.663 27.0984 167.864 28.0082 169.713 29.857C169.918 30.0918 170.535 30.8255 171.503 32.058L171.826 32.5569L172.09 33.0265L172.207 33.2319L172.325 33.4373L172.413 33.6134L172.501 33.7895C174.702 37.9568 175.523 42.2414 174.966 46.6434C174.408 51.5443 172.178 55.3888 168.304 58.118C165.223 60.2604 161.73 61.3462 157.857 61.3462C155.744 61.3462 153.924 61.0234 152.398 60.3484C151.87 60.1136 151.488 59.7321 151.254 59.1745C151.048 58.6169 151.048 58.0593 151.254 57.5311C151.518 56.9735 151.899 56.592 152.398 56.3866C152.956 56.1518 153.513 56.1518 154.071 56.3866C155.744 57.0616 157.681 57.2376 159.882 56.8561C162.141 56.5333 164.108 55.7996 165.839 54.6258C167.776 53.2465 169.155 51.4563 170.006 49.2259C170.74 47.3477 171.004 45.2935 170.799 43.0631H171.444ZM203.256 36.8122C202.963 36.1373 202.552 34.8753 202.053 33.0265C201.437 31.2657 201.026 29.3288 200.791 27.2452C200.263 28.0082 199.324 29.182 198.003 30.7374C197.71 31.1189 197.358 31.4711 196.947 31.8526L195.92 32.9091L195.274 33.5547L194.599 34.2297L194.482 34.3471L193.895 34.9634L193.63 35.2862L193.366 35.5797C193.249 35.7264 193.161 35.8731 193.073 35.9612L192.838 36.2546L192.926 36.3133L193.161 36.4307L193.278 36.4601L193.542 36.5481L193.953 36.6948L194.423 36.8416C196.418 37.3111 198.297 37.4872 200.057 37.3405C200.439 37.3111 200.82 37.2524 201.261 37.1644L202.493 36.959L203.256 36.8122ZM204.577 22.667C204.753 24.3985 204.9 25.6311 205.017 26.3354C205.252 28.0375 205.633 29.8864 206.191 31.882C206.631 33.4667 207.071 34.7873 207.512 35.8438C208.187 37.2818 208.95 38.4557 209.83 39.3654C210.652 40.1871 211.62 40.7447 212.765 41.0088C213.85 41.1556 214.878 41.2436 215.817 41.2436C216.404 41.2436 216.903 41.449 217.313 41.8599C217.754 42.3001 217.959 42.799 217.959 43.3859C217.959 44.0022 217.754 44.5011 217.313 44.8826C216.932 45.3228 216.433 45.5282 215.817 45.5282L215.259 45.4989H214.79C214.32 45.4989 214.027 45.4695 214.027 45.4695L213.469 45.4109L212.999 45.3522L212.501 45.2935L211.649 45.1467C209.801 44.6772 208.187 43.7674 206.807 42.3881C206.484 42.0653 206.074 41.5664 205.545 40.8621H205.516L205.252 40.8914L204.958 40.9208C204.694 40.9501 204.107 41.0382 203.227 41.1849L202.552 41.3023L201.848 41.4197C201.349 41.5077 200.879 41.5664 200.439 41.5958C198.502 41.7718 196.154 41.5664 193.396 41.0088C191.723 40.5686 190.432 39.9523 189.463 39.1013C188.495 38.1915 188.143 37.1644 188.407 36.0199C188.612 35.0514 189.052 34.171 189.669 33.3786L189.874 33.0852L190.109 32.8211L190.314 32.5569L190.52 32.3222L190.96 31.882L191.165 31.6178L191.4 31.4124L191.518 31.2657L191.811 31.0016L191.958 30.8548L192.104 30.6787L192.31 30.444L192.515 30.2385L192.721 30.0331L192.897 29.857L193.366 29.3875L193.895 28.8299L194.1 28.6538L194.305 28.3897C194.482 28.2429 194.628 28.0962 194.746 27.9495C196.36 26.1006 197.915 23.9583 199.471 21.4638L199.999 20.29L200.234 19.7324C200.439 19.2922 200.762 18.94 201.202 18.7346C201.642 18.4704 202.112 18.4118 202.552 18.4998C203.11 18.5878 203.52 18.8226 203.785 19.1748C204.107 19.4976 204.283 19.9084 204.342 20.4367V20.378L204.371 20.4367V20.7889L204.401 21.053L204.489 21.8747L204.577 22.667ZM199.382 14.8608L198.825 14.3619C198.355 13.9804 198.121 13.5108 198.091 12.9532V12.7772C198.091 12.1609 198.267 11.6913 198.649 11.3098C199.03 10.899 199.5 10.6935 200.116 10.6642C200.674 10.6642 201.231 10.8696 201.789 11.3098L203.256 12.5424L203.785 12.9532C204.254 13.3641 204.518 13.8336 204.606 14.3619L204.636 14.7141C204.636 15.2129 204.43 15.6825 204.049 16.1227C203.638 16.5629 203.11 16.7683 202.493 16.7683C202.112 16.7683 201.672 16.6216 201.231 16.3575L199.382 14.8608ZM192.163 14.5967L191.87 14.3619C191.4 13.9217 191.165 13.4521 191.136 12.8945V12.7185C191.136 12.1902 191.312 11.7207 191.664 11.2805C191.987 10.8403 192.486 10.6348 193.132 10.6055C193.63 10.6055 194.1 10.7522 194.511 11.0457L195.215 11.5739L195.861 12.1315L196.947 12.9826C197.416 13.3054 197.71 13.775 197.827 14.3619L197.856 14.7434C197.856 15.2423 197.68 15.7118 197.328 16.152C196.947 16.6216 196.418 16.8564 195.743 16.8564C195.186 16.8564 194.511 16.5336 193.777 15.9173L192.163 14.5967ZM236.741 29.9451C244.401 32.7037 250.769 34.4351 255.787 35.1395C256.345 35.2275 256.785 35.4916 257.108 35.9025C257.489 36.2546 257.636 36.7829 257.577 37.4872C257.489 38.1035 257.225 38.573 256.785 38.8959C256.433 39.248 255.905 39.3948 255.23 39.3654C249.331 38.7491 245.252 38.573 242.992 38.8959C240.762 39.1013 238.59 39.5415 236.448 40.2165L236.125 40.3045L235.802 40.4219L235.332 40.5393L234.922 40.6567L234.1 40.9208L233.219 41.2143L231.605 41.7425L229.991 42.3294L229.023 42.6523L228.084 42.9751L227.35 43.2098L226.675 43.4446C222.126 44.8239 218.575 45.5282 216.081 45.5282C215.523 45.5282 214.995 45.3228 214.555 44.912C214.144 44.4718 213.939 43.9729 213.939 43.4153C213.939 42.8283 214.144 42.3294 214.555 41.8892C214.995 41.4784 215.523 41.273 216.081 41.273C218.517 41.273 221.598 40.6567 225.325 39.4241C226.029 39.16 227.115 38.7785 228.583 38.2796L231.693 37.2231L232.544 36.9296L233.366 36.6655L233.806 36.5481L234.569 36.3427C234.628 36.3133 234.687 36.284 234.775 36.2546C234.833 36.2253 234.892 36.2253 234.951 36.2253C237.123 35.521 238.384 35.1395 238.766 35.1101L239.353 35.3155L238.678 35.0808L237.709 34.758L235.655 34.083L235.391 33.9949L234.98 33.8775L234.511 33.7308L233.689 33.4373L231.781 32.7917L231.341 32.6743L230.813 32.4982C230.696 32.4689 230.519 32.4102 230.255 32.3222L229.962 32.2341L229.698 32.1461L229.199 31.9993L228.641 31.8233L228.553 31.7939L228.084 31.6472L227.966 31.6178C225.002 30.7081 222.508 30.1211 220.483 29.7983C219.925 29.6809 219.456 29.3875 219.104 28.9179C218.722 28.419 218.605 27.8908 218.722 27.3039C218.839 26.7463 219.133 26.2767 219.573 25.9245C220.16 25.6017 220.688 25.455 221.187 25.543C223.535 25.8952 226.176 26.5408 229.14 27.5093L229.228 27.5386H229.287L229.375 27.568L229.58 27.6267L229.845 27.7147L230.138 27.8027L230.49 27.9201C230.813 28.0082 231.106 28.0962 231.371 28.1843L231.811 28.331L232.28 28.4777L232.72 28.6245L233.102 28.7418L233.249 28.8005H233.307L233.454 28.8592L233.718 28.9473L234.012 29.0647L234.481 29.2114L234.98 29.3875L235.861 29.6516L236.301 29.7983L236.741 29.9451ZM236.712 21.7279L236.154 21.2291C235.685 20.8475 235.45 20.378 235.42 19.8204V19.6443C235.42 19.028 235.596 18.5585 235.978 18.177C236.36 17.7661 236.829 17.5607 237.445 17.5314C238.003 17.5314 238.561 17.7368 239.118 18.177L240.585 19.4095L241.114 19.8204C241.583 20.2313 241.847 20.7008 241.935 21.2291L241.965 21.5812C241.965 22.0801 241.759 22.5497 241.378 22.9899C240.967 23.4301 240.439 23.6355 239.822 23.6355C239.441 23.6355 239.001 23.4888 238.561 23.2246L236.712 21.7279ZM279.177 47.8466C279.177 49.0205 279.147 49.6368 279.147 49.6368C279.118 49.9009 279.089 50.2531 279.059 50.6933C279 51.2509 278.942 51.8378 278.854 52.4834C278.472 54.7725 277.621 56.7681 276.301 58.4702C275.215 59.8495 273.747 60.906 271.84 61.669C270.196 62.4027 268.26 62.7842 266 62.7842C264.327 62.7842 262.478 62.432 260.512 61.7277C259.954 61.4636 259.573 61.0527 259.367 60.5538C259.103 59.9962 259.103 59.4386 259.367 58.8811C259.632 58.3235 260.013 57.9713 260.541 57.7659C261.07 57.5605 261.627 57.5605 262.185 57.7659C263.681 58.5582 265.677 58.7343 268.171 58.3235C270.314 57.9126 271.928 57.0616 272.955 55.7996C273.835 54.6845 274.422 53.2758 274.686 51.5443C274.863 49.5488 274.951 47.8173 274.921 46.35L274.892 45.1174L274.921 43.8261V43.3566L274.951 43.0338L274.98 42.7109L275.009 42.3001L275.039 41.8012L275.068 41.3023L275.127 40.7741L275.185 40.2752L275.215 40.0991L275.244 39.8643L275.303 39.5415L275.332 39.2187C275.479 38.1622 275.684 37.3992 275.919 36.9296C276.535 35.1395 277.533 33.7895 278.971 32.9384C280.35 32.0874 281.759 31.7646 283.138 31.9993C284.606 32.2048 285.78 32.8798 286.689 34.0536C287.159 34.6406 287.511 35.2862 287.775 36.0199C287.981 36.372 288.098 36.7242 288.157 37.0764L288.421 38.0448C288.802 39.4828 289.154 40.3632 289.448 40.6567C289.771 41.0382 290.27 41.2436 290.945 41.2436C291.561 41.2436 292.06 41.449 292.441 41.8892C292.882 42.2707 293.087 42.7696 293.087 43.3859C293.087 43.9729 292.882 44.4718 292.441 44.912C292.03 45.3228 291.532 45.5282 290.945 45.5282C288.861 45.5282 287.218 44.7652 286.044 43.2392C285.662 42.799 285.281 42.036 284.87 41.0088L284.606 40.2165L284.459 39.6882L284.312 39.248C283.96 38.0155 283.637 37.1644 283.314 36.6655C283.08 36.3427 282.757 36.1959 282.375 36.1959C281.994 36.1959 281.612 36.3133 281.231 36.5775C280.615 36.959 280.145 37.6339 279.852 38.6024C279.734 38.8959 279.617 39.3948 279.529 40.0991L279.411 40.9501L279.294 41.7425C279.177 44.0022 279.118 45.5282 279.147 46.3206L279.177 47.8466ZM297.606 36.1079C298.516 37.0764 300.306 38.0741 303.036 39.1013C303.534 38.8372 303.945 38.485 304.297 38.0448C304.884 37.3111 305.06 36.3427 304.796 35.1395C304.444 33.6428 303.828 32.2048 302.977 30.8842C302.008 29.5049 301.011 28.5951 299.983 28.2136C299.719 28.1256 299.397 28.0669 299.015 28.0669C298.751 28.0669 298.428 28.1549 298.047 28.3016C297.284 28.7418 296.785 29.5636 296.55 30.8255C296.11 33.1145 296.462 34.8753 297.606 36.1079ZM307.643 40.598C309.668 41.0382 310.901 41.273 311.311 41.2436C311.928 41.2436 312.427 41.449 312.867 41.8599C313.278 42.3001 313.483 42.799 313.483 43.3859C313.483 43.9729 313.278 44.4718 312.867 44.8826C312.427 45.3228 311.928 45.5282 311.341 45.5282C309.58 45.5576 306.88 44.9413 303.212 43.7381L303.241 43.7674C300.394 44.9413 296.286 45.5282 290.915 45.5282C290.328 45.5282 289.829 45.3228 289.389 44.8826C288.978 44.4718 288.773 43.9729 288.773 43.3859C288.773 42.799 288.978 42.3001 289.389 41.8892C289.829 41.449 290.328 41.2436 290.915 41.2436C294.496 41.2436 296.491 41.1849 296.931 41.0382C295.552 40.3632 294.378 39.2187 293.38 37.6046C292.119 35.6384 291.796 33.1145 292.353 30.0038C292.823 27.5093 293.997 25.7191 295.904 24.6333C297.577 23.6355 299.426 23.4888 301.421 24.1931C303.27 24.8387 304.943 26.218 306.381 28.3016C307.643 30.1505 308.494 32.1167 308.934 34.2004C309.551 36.7535 309.11 38.9545 307.614 40.7447L307.643 40.598ZM296.256 17.6781L295.699 17.1792C295.229 16.7977 294.995 16.3281 294.965 15.7705V15.5945C294.965 14.9782 295.141 14.5086 295.523 14.1271C295.904 13.7163 296.374 13.5108 296.99 13.4815C297.548 13.4815 298.105 13.6869 298.663 14.1271L300.13 15.3597L300.658 15.7705C301.128 16.1814 301.392 16.6509 301.48 17.1792L301.51 17.5314C301.51 18.0302 301.304 18.4998 300.923 18.94C300.512 19.3802 299.983 19.5856 299.367 19.5856C298.986 19.5856 298.545 19.4389 298.105 19.1748L296.256 17.6781ZM320.468 35.521C320.468 36.5188 320.438 37.047 320.438 37.047C320.38 38.4263 320.233 39.4534 319.969 40.1871C319.528 42.1534 318.413 43.6207 316.682 44.5305C315.801 45.0293 314.774 45.3228 313.571 45.4695H313.16L312.72 45.4989H312.045C311.84 45.5282 311.664 45.5282 311.517 45.5282H310.666C310.02 45.5282 309.521 45.3228 309.14 44.8826C308.729 44.5011 308.523 44.0022 308.523 43.3859C308.523 42.799 308.729 42.3001 309.14 41.8599C309.551 41.449 310.049 41.2436 310.666 41.2436H310.959C312.397 41.2436 313.248 41.2143 313.571 41.1556C313.982 41.0969 314.334 40.9795 314.628 40.7741C315.303 40.3925 315.772 39.5415 316.007 38.2502L316.154 36.5775L316.212 35.2862L316.183 33.6134C316.183 32.1461 315.978 27.9201 315.596 20.9062C315.156 14.0684 314.686 8.55121 314.246 4.32527C314.158 3.85572 314.305 3.32748 314.657 2.76989C315.038 2.27099 315.537 2.00687 316.124 1.97752C316.682 1.88948 317.21 2.03621 317.68 2.41772C318.12 2.79923 318.384 3.26878 318.472 3.82637C318.942 7.7882 319.411 13.3934 319.851 20.7008C320.262 27.2452 320.468 31.5298 320.468 33.6134V35.521ZM327.834 45.8217C327.247 45.8217 326.748 45.6163 326.337 45.2054C325.897 44.8239 325.691 44.325 325.691 43.7087C325.633 36.2546 325.28 28.1843 324.635 19.5269L324.547 17.7661L324.429 16.0053L324.371 15.0369L324.312 14.0978L324.283 13.6282L324.253 13.1293L324.224 12.7478L324.195 12.3957L324.077 10.3414L323.989 8.60991C323.989 8.60991 323.96 8.34579 323.96 7.87624V7.61212L323.931 7.31865L323.901 6.81975L323.872 6.32085C323.842 5.58718 323.813 5.05894 323.784 4.70678C323.754 4.09049 323.931 3.56225 324.341 3.12205C324.723 2.68185 325.222 2.44707 325.838 2.41772C326.454 2.38838 326.953 2.5938 327.393 2.97531C327.834 3.35682 328.039 3.85572 328.068 4.472C328.127 5.55784 328.186 6.70236 328.245 7.93493V8.2284L328.274 8.58056L328.303 9.05011L328.333 9.37293C328.333 9.37293 328.362 9.63705 328.362 10.1359V10.4588L328.391 10.7816L328.685 15.7412L328.802 17.5314L328.89 19.2628C329.565 27.568 329.917 35.697 329.976 43.6794C329.976 44.2663 329.771 44.7652 329.36 45.1761C328.978 45.6163 328.479 45.8217 327.863 45.8217H327.834Z" fill="black"/>
<path d="M393.343 54.5385C391.603 54.801 390.044 55.4903 388.633 56.5569C388.97 55.9908 389.306 55.4328 389.692 54.7846C388.896 54.8421 388.182 54.8831 387.468 54.9323C387.452 54.8913 387.427 54.8503 387.411 54.8093C387.936 54.5303 388.453 54.2595 389.011 53.9641C388.666 52.5529 388.1 51.199 387.353 49.9272C387.304 49.8452 387.156 49.7713 387.058 49.7795C386.122 49.8616 385.179 49.9437 384.244 50.0585C383.759 50.116 383.669 50.3129 383.874 50.7642C384.375 51.8472 384.867 52.9221 385.384 53.9887C385.466 54.1611 385.671 54.2923 385.843 54.3826C386.188 54.5631 386.557 54.6944 386.91 54.8995C385.154 55.2195 383.579 55.9005 382.168 57C382.332 56.721 382.504 56.4421 382.668 56.1631C382.84 55.8759 383.013 55.5805 383.242 55.2031C382.447 55.2523 381.725 55.2934 380.888 55.3508C381.585 54.7764 382.299 54.5057 383.169 54.2923C382.758 53.3077 382.373 52.3641 381.979 51.4288C381.889 51.2154 381.741 51.0267 381.659 50.8134C381.281 49.878 380.502 49.5416 379.583 49.4513C376.81 49.1642 374.463 47.8842 372.231 46.3416C370.467 45.1273 368.884 43.6914 367.661 41.9109C366.381 40.0565 365.692 37.9561 365.306 35.7571C365.076 34.4443 364.822 33.0987 364.863 31.7776C364.912 30.1612 365.249 28.5613 365.495 26.9531C365.725 25.5008 366.004 24.0485 366.258 22.5962C366.34 22.1367 366.135 21.9152 365.626 21.8249C365.208 21.7511 364.789 21.6936 364.387 21.5705C363.468 21.2916 363.132 20.7008 363.476 19.8065C363.764 19.0762 364.158 18.3788 364.568 17.706C365.118 16.8034 365.109 16.6885 364.174 16.1716C363.501 15.7942 362.828 15.4168 362.09 14.9983C363.165 14.7275 364.149 14.465 365.142 14.227C365.766 14.0793 366.184 13.7347 366.422 13.1357C367.12 11.3717 368.293 10.0014 369.868 8.96757C370.549 8.5245 371.074 7.96655 371.468 7.25271C372.231 5.88247 373.241 4.72556 374.545 3.84761C374.857 3.63428 375.218 3.47018 375.571 3.35531C376.162 3.15839 376.596 3.38813 376.793 3.97889C376.908 4.3153 376.957 4.66812 377.048 5.07017C377.433 4.88966 377.811 4.72556 378.188 4.54504C379.009 4.1512 379.837 3.81479 380.765 3.79018C381.766 3.76556 382.241 4.46299 381.872 5.39837C381.47 6.40759 380.781 7.21989 380.026 7.97476C379.895 8.10604 379.706 8.17989 379.542 8.28655C379.583 8.34399 379.624 8.39322 379.657 8.45065C380.239 8.62296 380.83 8.77886 381.413 8.95937C381.798 9.08244 382.192 9.22193 382.561 9.38603C382.988 9.58295 383.308 9.87013 383.341 10.3953C383.374 10.9532 383.095 11.2978 382.644 11.544C381.651 12.1019 380.584 12.4137 379.46 12.5368C378.754 12.6188 378.049 12.6598 377.335 12.7091C377.015 12.7337 376.892 12.865 376.974 13.185C377.614 15.5809 377.335 17.9849 377.048 20.389C376.892 21.7018 376.785 23.0228 376.678 24.3439C376.637 24.8444 376.81 25.0331 377.302 25.0413C378.935 25.0659 380.494 25.4023 382.004 26.0177C383.464 26.6085 384.998 26.6577 386.525 26.4197C389.355 25.9767 392.194 25.5336 394.992 24.9346C396.403 24.631 397.733 23.95 399.103 23.4577C401.269 22.67 403.435 21.8659 405.724 21.4885C406.364 21.3818 407.029 21.349 407.677 21.3736C408.186 21.39 408.35 21.7182 408.194 22.2105C408.145 22.3664 408.079 22.5141 408.005 22.6618C407.94 22.8095 407.849 22.949 407.759 23.1131C408.243 23.3182 408.695 23.4987 409.146 23.6957C409.335 23.7777 409.515 23.8844 409.671 24.0074C410.089 24.3274 410.172 24.7295 409.827 25.1397C409.556 25.4597 409.244 25.7633 408.892 25.9767C408.268 26.3541 407.948 26.8546 407.948 27.5849C407.948 28.3069 407.644 28.5777 406.922 28.6269C406.405 28.6597 405.888 28.7007 405.38 28.8074C404.748 28.9387 404.518 29.2177 404.485 29.8577C404.387 31.8187 404.083 33.7387 403.427 35.593C401.794 40.2042 399.185 44.1099 395.156 46.9816C393.663 48.0483 392.03 48.8196 390.241 49.2626C390.11 49.2954 389.979 49.3365 389.848 49.3857C389.593 49.4842 389.511 49.6647 389.626 49.9108C390.192 51.1334 390.767 52.3641 391.349 53.5785C391.398 53.6852 391.579 53.7426 391.702 53.7918C392.243 53.9887 392.793 54.1775 393.343 54.3744C393.368 54.44 393.351 54.4893 393.343 54.5385ZM370.016 13.9809C369.975 13.7757 369.958 13.587 369.893 13.4147C369.77 13.0701 369.499 12.8978 369.138 12.9142C368.785 12.9306 368.564 13.1686 368.547 13.4886C368.523 13.866 368.539 14.2762 368.67 14.6209C368.744 14.8014 369.097 14.9573 369.327 14.9573C369.515 14.9573 369.745 14.7439 369.876 14.5634C369.983 14.4075 369.975 14.1778 370.016 13.9809Z" fill="black"/>
<path d="M366.094 8.15527C365.864 7.99937 365.692 7.91732 365.561 7.78604C364.461 6.71938 363.362 5.65272 362.27 4.58607C361.942 4.26607 361.942 3.88043 362.229 3.57684C362.525 3.26505 363.009 3.24864 363.329 3.55223C363.977 4.1594 364.609 4.78299 365.249 5.39837C365.7 5.84144 366.135 6.28451 366.586 6.72759C366.841 6.98194 366.898 7.30194 366.718 7.58912C366.57 7.81065 366.315 7.95834 366.094 8.15527Z" fill="black"/>
<path d="M369.474 5.41478C369.474 6.07118 369.236 6.35015 368.793 6.40759C368.383 6.46502 368.071 6.25169 367.973 5.79221C367.833 5.15222 367.719 4.51222 367.62 3.86402C367.554 3.43736 367.801 3.12557 368.227 3.0271C368.621 2.92864 368.999 3.10095 369.097 3.503C369.261 4.19222 369.368 4.88965 369.474 5.41478Z" fill="black"/>
<path d="M364.888 9.77988C364.88 10.3706 364.428 10.7153 363.87 10.5183C363.247 10.2968 362.631 10.0424 362.016 9.77988C361.671 9.64039 361.516 9.37783 361.589 9.0004C361.671 8.61476 361.893 8.40143 362.295 8.40143C362.467 8.40143 362.656 8.40143 362.812 8.45886C363.37 8.6722 363.92 8.91014 364.461 9.15629C364.806 9.31219 364.896 9.46809 364.888 9.77988Z" fill="black"/>
</svg>
